<svg id="visual" viewBox="0 0 1600 900" width="1600" height="900" xmlns="http://www.w3.org/2000/svg" xmlns:xlink="http://www.w3.org/1999/xlink" version="1.1"><rect x="0" y="0" width="1600" height="900" fill="#212529"></rect><g fill="#e4d7c0"><circle r="22" cx="592" cy="10"></circle><circle r="2" cx="1066" cy="23"></circle><circle r="9" cx="222" cy="399"></circle><circle r="18" cx="893" cy="30"></circle><circle r="14" cx="5" cy="15"></circle><circle r="15" cx="1517" cy="223"></circle><circle r="4" cx="161" cy="815"></circle><circle r="10" cx="1218" cy="705"></circle><circle r="19" cx="1140" cy="468"></circle><circle r="7" cx="629" cy="68"></circle><circle r="6" cx="646" cy="253"></circle><circle r="3" cx="667" cy="357"></circle><circle r="10" cx="38" cy="853"></circle><circle r="12" cx="300" cy="802"></circle><circle r="19" cx="218" cy="728"></circle><circle r="8" cx="1273" cy="351"></circle><circle r="9" cx="1491" cy="509"></circle><circle r="3" cx="595" cy="874"></circle><circle r="10" cx="464" cy="207"></circle><circle r="16" cx="372" cy="501"></circle><circle r="8" cx="204" cy="887"></circle><circle r="17" cx="973" cy="83"></circle><circle r="11" cx="1595" cy="860"></circle><circle r="1" cx="1146" cy="8"></circle><circle r="2" cx="1251" cy="62"></circle><circle r="5" cx="781" cy="780"></circle><circle r="14" cx="720" cy="182"></circle><circle r="11" cx="1560" cy="702"></circle><circle r="7" cx="1130" cy="863"></circle></g></svg>